<svg width="33" height="33" viewBox="0 0 33 33" fill="none" xmlns="http://www.w3.org/2000/svg">
<path d="M6.59218 9.70173C6.59218 7.98435 7.98505 6.59148 9.70105 6.59148H11.1159C11.9354 6.59148 12.7233 6.26698 13.3063 5.6881L14.2949 4.6981C15.5063 3.48123 17.4753 3.47573 18.6922 4.6871L18.7046 4.6981L19.6946 5.6881C20.2762 6.26698 21.0641 6.59148 21.8849 6.59148H23.2984C25.0158 6.59148 26.4087 7.98435 26.4087 9.70173V11.1139C26.4087 11.9361 26.7332 12.7226 27.3121 13.3056L28.3021 14.2956C29.5189 15.507 29.5258 17.4746 28.3144 18.6929L28.3021 18.7052L27.3121 19.6952C26.7332 20.2755 26.4087 21.0647 26.4087 21.8842V23.2991C26.4087 25.0165 25.0158 26.408 23.2984 26.408H21.8849C21.0641 26.408 20.2762 26.7339 19.6946 27.3127L18.7046 28.3014C17.4946 29.5196 15.5256 29.5251 14.3073 28.3137C14.3032 28.3096 14.2991 28.3055 14.2949 28.3014L13.3063 27.3127C12.7233 26.7339 11.9354 26.408 11.1159 26.408H9.70105C7.98505 26.408 6.59218 25.0165 6.59218 23.2991V21.8842C6.59218 21.0647 6.2663 20.2755 5.68743 19.6952L4.6988 18.7052C3.48055 17.4939 3.47505 15.5249 4.68643 14.308L4.6988 14.2956L5.68743 13.3056C6.2663 12.7226 6.59218 11.9361 6.59218 11.1139V9.70173" stroke="#200E32" stroke-width="1.5" stroke-linecap="round" stroke-linejoin="round"/>
<path d="M12.9662 20.0331L20.0337 12.9656" stroke="#200E32" stroke-width="1.5" stroke-linecap="round" stroke-linejoin="round"/>
<path d="M20.0292 21.0683C19.7542 21.0683 19.493 20.9583 19.3005 20.7658C19.2042 20.6695 19.1355 20.5458 19.0805 20.422C19.0255 20.2983 18.998 20.1759 18.998 20.037C18.998 19.8995 19.0255 19.762 19.0805 19.6383C19.1355 19.5145 19.2042 19.4045 19.3005 19.3083C19.6855 18.9233 20.373 18.9233 20.758 19.3083C20.8542 19.4045 20.9367 19.5145 20.9917 19.6383C21.033 19.762 21.0605 19.8995 21.0605 20.037C21.0605 20.1759 21.033 20.2983 20.9917 20.422C20.9367 20.5458 20.8542 20.6695 20.758 20.7658C20.5655 20.9583 20.3042 21.0683 20.0292 21.0683Z" fill="#200E32"/>
<path d="M12.9616 14.0013C12.8241 14.0013 12.7004 13.9725 12.5766 13.9175C12.4529 13.8625 12.3291 13.7951 12.2329 13.6989C12.1366 13.5889 12.0679 13.4789 12.0129 13.3551C11.9579 13.23 11.9304 13.1076 11.9304 12.9701C11.9304 12.8312 11.9579 12.6951 12.0129 12.5713C12.0679 12.4476 12.1366 12.3238 12.2329 12.2413C12.6316 11.855 13.3054 11.855 13.6904 12.2413C13.8829 12.4325 13.9929 12.6951 13.9929 12.9701C13.9929 13.1076 13.9791 13.23 13.9241 13.3551C13.8691 13.4789 13.7866 13.5889 13.6904 13.6989C13.5941 13.7951 13.4841 13.8625 13.3604 13.9175C13.2366 13.9725 13.0991 14.0013 12.9616 14.0013Z" fill="#200E32"/>
</svg>
